<?xml version="1.0" encoding="utf-8"?>
<!-- Generator: Adobe Illustrator 21.0.0, SVG Export Plug-In . SVG Version: 6.00 Build 0)  -->
<svg version="1.1" id="Layer_1" xmlns="http://www.w3.org/2000/svg" xmlns:xlink="http://www.w3.org/1999/xlink" x="0px" y="0px"
	 viewBox="0 0 1024 768" style="enable-background:new 0 0 1024 768;" xml:space="preserve">
<style type="text/css">
	.st0{fill:#231F20;}
</style>
<g>
	<path class="st0" d="M356.5,445.3c-0.1,0.3-0.2,0.6-0.2,1c-0.1,0.3-0.1,0.6-0.2,0.9c-0.1,0.8,0,1.7,0.2,2.7
		c0.3,1.3,0.2,2.6-0.3,3.7c-0.1,0.1-0.2,0.2-0.4,0.4c-0.2,0.2-0.4,0.2-0.5,0.2h-1.4c-1-0.1-1.9-0.2-2.8-0.2c-0.9,0-1.8,0.1-2.8,0.3
		c-0.4,0.1-0.8,0.1-1.2,0.1c-0.4,0-0.8,0-1.2,0c-0.6,0-0.9,0.3-1,0.8c-0.1,0.3-0.2,0.6-0.2,0.9c-0.1,0.3-0.1,0.6-0.1,1
		c-0.1,1.4-0.2,2.8-0.3,4.2c-0.1,1.4-0.1,2.9,0,4.3c0,0.9,0,1.7,0,2.6c0,0.9-0.1,1.8-0.2,2.6c-0.1,1.1-0.2,2.1-0.3,3.2
		c-0.1,1-0.2,2.1-0.3,3.2v0.5c-0.1,0.4-0.2,0.6-0.4,0.8c-0.2,0.2-0.4,0.4-0.8,0.5c-0.6,0.2-1.1,0.3-1.7,0.3c-0.6,0.1-1.2,0-1.7-0.3
		c-0.4-0.1-0.8-0.2-1.3-0.2c-0.4,0-0.8,0.1-1.3,0.4l-0.2,0.1c-0.5-0.1-0.9-0.2-1.3-0.3c-0.4-0.1-0.8-0.2-1.1-0.5
		c-0.8-0.6-1.2-1.4-1.3-2.4v-0.5c0-0.9,0.1-1.7,0.1-2.5c0-0.8,0.1-1.7,0.2-2.5c0.2-1.2,0.3-2.4,0.3-3.6c0-1.2,0.1-2.4,0.1-3.6
		c0-0.6,0-1.1,0-1.7s0.1-1.1,0.1-1.7c0-0.3,0-0.5,0-0.8c0-0.3,0-0.5,0.1-0.8c0.2-0.7,0.3-1.4,0.3-2.2c0-0.7,0-1.5,0.1-2.2
		c0-0.7-0.2-1.2-0.7-1.7c-0.4-0.3-0.8-0.6-1.1-0.9c-0.4-0.3-0.7-0.6-1.1-0.8c-0.3-0.3-0.5-0.5-0.7-0.6c-0.2-0.2-0.5-0.4-0.7-0.6
		c-0.6-0.6-0.6-1.1,0-1.6c0.4-0.4,0.8-0.8,1.2-1.1c0.4-0.4,0.8-0.7,1.2-1.1c0.2-0.1,0.3-0.2,0.4-0.3c0.1-0.1,0.2-0.2,0.3-0.3
		c0.3-0.3,0.5-0.6,0.6-0.9c0.1-0.4,0.2-0.7,0.3-1.1c0-0.4,0-0.8,0-1.3c0-0.4,0-0.9-0.1-1.3c0-1.4,0.1-2.8,0.2-4.3
		c0.1-1.4,0.2-2.9,0.4-4.3c0.3-1.6,0.5-3.2,0.6-4.9c0.2-1.6,0.3-3.3,0.3-4.9c0-0.3,0-0.5,0-0.8c0-0.3,0.1-0.5,0.1-0.8
		c0-0.5,0.3-0.8,0.8-0.9c0.6-0.2,1.2-0.3,1.8-0.3c1,0,2-0.1,3-0.2c1-0.1,1.9-0.1,2.8,0c0.2,0.1,0.3,0.1,0.6,0s0.4-0.1,0.6-0.1
		c1.2-0.2,2.4-0.3,3.7-0.4c1.2,0,2.4-0.2,3.7-0.3c1.3-0.2,2.7-0.1,4,0.2c0.3,0.1,0.6,0.2,1,0.2c0.3,0,0.7,0.1,1,0.2
		c0.3,0.1,0.5,0.3,0.7,0.6c0,0.3,0.1,0.5,0.1,0.6s0,0.3,0.1,0.5c0,1.2,0,2.4,0,3.6c0,1.2,0,2.3,0,3.5c0,0.3-0.1,0.5-0.3,0.7
		c-0.2,0.2-0.4,0.3-0.6,0.3c-1.1-0.1-2.2-0.2-3.3-0.2c-1.1,0-2.2-0.1-3.2-0.2c-1.1-0.1-2.1-0.2-3.1-0.2c-1,0-2,0-2.9,0.1
		c-0.5,0.1-0.8,0.4-0.8,0.8c-0.1,0.3-0.1,0.6-0.1,0.9c0,0.3,0,0.6,0,1v4.7c0,0.5,0,1,0,1.5c0,0.5,0,1,0,1.6v3.7c0,0.5,0.3,0.8,1,0.8
		c0.4,0,0.7,0,0.9-0.1c0.9-0.1,1.8-0.2,2.8-0.2s1.9,0,2.8,0c0.8,0,1.5,0,2.3,0.1c0.8,0.1,1.5,0.3,2.2,0.6
		C356.6,444,356.7,444.6,356.5,445.3z"/>
	<path class="st0" d="M363.1,452.7c-0.4-0.5-0.8-1-1.3-1.6c-0.3-0.3-0.5-0.6-0.8-0.9c-0.3-0.3-0.5-0.6-0.8-0.9
		c-0.3-0.4-0.3-0.8,0.1-1.1c0.4-0.6,0.8-1.1,1.2-1.7c0.4-0.6,0.8-1.1,1.3-1.7c0.2-0.2,0.3-0.4,0.4-0.6c0.1-0.2,0.2-0.4,0.3-0.5
		c0.2-0.4,0.3-0.8,0.2-1.2c-0.3-1.5-0.4-2.9-0.3-4.3c0-1.4,0.1-2.9,0.2-4.3c0.1-1.5,0.2-3,0.3-4.6c0.1-1.5,0.1-3,0-4.6
		c-0.1-0.5-0.1-0.9,0-1.3c0-0.4,0-0.9,0-1.3c-0.1-0.6,0-1,0.2-1.4c0.2-0.4,0.3-0.9,0.4-1.4c0-0.3,0.2-0.5,0.6-0.6
		c0.4-0.1,0.8-0.2,1.2-0.3c0.4-0.1,0.8-0.1,1.2-0.1c0.7-0.1,1.3-0.2,1.9-0.3c0.6-0.1,1.3-0.1,1.9,0c0.9,0.1,1.7,0.2,2.5,0.2
		s1.7,0.2,2.5,0.5c0.2,0.1,0.4,0.3,0.5,0.5c0.1,0.2,0.1,0.4,0,0.7c-0.4,1.2-0.6,2.4-0.6,3.6c0,1.3,0,2.5-0.1,3.7c0,0.3,0,0.5,0,0.6
		c0,0.2,0,0.4,0,0.6c-0.2,2.3-0.3,4.5-0.2,6.7c0.1,2.2,0.1,4.4,0.1,6.7c0,0.4,0,0.8,0.1,1.1s0.1,0.6,0.2,0.9c0.2,0.5,0.4,1,0.8,1.4
		c0.4,0.4,0.8,0.8,1.1,1.3c0.4,0.4,0.7,0.9,1.1,1.4c0.4,0.4,0.5,0.9,0.6,1.4c0,0.6-0.1,1-0.5,1.4c-0.7,0.8-1.2,1.6-1.7,2.5
		c-0.5,0.9-1,1.7-1.6,2.5c-0.4,0.6-0.6,1.2-0.6,1.8c-0.1,0.7-0.1,1.4-0.2,2c-0.1,0.6-0.1,1.3,0,2c0,0.2,0,0.4,0,0.6
		c0,0.2,0,0.4-0.1,0.6c-0.3,1.5-0.4,3.1-0.3,4.6c0,1.6,0.2,3.1,0.4,4.7c0.3,1.1,0.4,2.2,0.5,3.3c0,0.5,0.1,0.9,0.2,1.4
		c0.1,0.5,0.1,0.9,0.2,1.3c0.1,0.4,0,0.7-0.2,1c-0.2,0.3-0.5,0.4-1,0.5c-0.5,0-1,0-1.4,0c-0.5,0-1,0-1.5,0c-1.2-0.1-2.4-0.2-3.7-0.2
		c-1.2,0-2.5,0-3.7,0.1h-0.2c-0.3,0-0.5-0.1-0.7-0.3c-0.2-0.2-0.3-0.4-0.3-0.6c0.1-0.5,0.1-0.9,0.1-1.4c0-0.5,0.1-0.9,0.2-1.3
		c0.2-1,0.3-1.9,0.3-2.9c0-1-0.1-1.9-0.2-2.9c-0.1-0.6-0.1-1.1-0.1-1.7c0-0.6,0-1.1,0.2-1.7c0-0.4,0.1-0.8,0.1-1.2s0-0.8,0-1.2
		c0-0.6,0.1-1.1,0.1-1.6c0-0.5,0-1,0.2-1.6c0.1-0.9,0.2-1.8,0.3-2.7c0.1-0.9,0.1-1.8,0.1-2.9v-1.4
		C364,453.8,363.5,453.2,363.1,452.7z"/>
	<path class="st0" d="M386.5,463.4c0-1.7,0.1-3.5,0.4-5.3c0.1-0.8,0.2-1.5,0.2-2.1c0-0.7,0.1-1.3,0.1-2.1c0-0.4-0.2-0.7-0.5-1.1
		c-0.2-0.2-0.3-0.4-0.5-0.5c-0.2-0.2-0.4-0.3-0.6-0.4c-0.5-0.3-0.9-0.6-1.4-0.8c-0.5-0.3-0.9-0.5-1.3-0.8c-0.4-0.2-0.6-0.4-0.7-0.6
		c-0.1-0.1-0.1-0.2-0.1-0.3c0-0.1,0-0.2,0-0.3v-0.2c0,0,0-0.1,0.1-0.1c0.8-0.7,1.4-1.4,1.9-2.2c0.5-0.8,1.1-1.6,1.8-2.3
		c0.3-0.3,0.4-0.6,0.5-1c0.1-0.3,0.1-0.7,0.2-1.1c0.1-0.8,0.1-1.5,0.1-2.2c0-0.7,0.1-1.4,0.2-2.1c0.2-1,0.2-2,0.3-2.9
		c0-0.9,0-1.9-0.1-2.9c-0.1-0.7-0.1-1.4-0.1-2.2c0-0.7,0.1-1.5,0.2-2.2c0-1.3,0.1-2.6,0.2-3.9c0.1-1.3,0.1-2.5,0.2-3.8
		c0.1-0.3,0.2-0.5,0.3-0.7s0.4-0.3,0.8-0.3c0-0.1,0.2-0.1,0.4-0.1h0.8h5.2c0.4,0,0.7-0.1,1.1-0.2c0.4,0,0.7-0.1,1.1-0.2
		c0.6-0.2,1-0.1,1.4,0.3c0.4,0.4,0.6,0.9,0.5,1.5c0,0.6,0,1.1,0,1.7c0,0.6-0.1,1.2-0.2,1.8c-0.2,2-0.3,3.9-0.6,5.9
		c-0.2,2-0.5,3.9-0.7,5.8c-0.1,0.8-0.1,1.5-0.1,2.2c0.1,0.7,0.1,1.4,0.2,2.2c0,0.5,0.1,1,0,1.4c0,0.4,0,0.8,0,1.3
		c-0.1,1.3-0.1,2.6-0.1,3.8c0,1.2,0,2.4,0,3.7c-0.1,1.6,0,3.2,0,4.8c0.1,1.6,0.1,3.2,0,4.9c-0.1,0.4-0.1,0.8-0.1,1.3
		c0,0.5,0,0.9,0,1.4c-0.1,0.8-0.1,1.5-0.1,2.3c0.1,0.8,0.1,1.6,0.2,2.3c0.1,0.3,0.3,0.5,0.6,0.6c0.5,0.2,0.9,0.2,1.2,0.2
		c0.8,0.1,1.6,0.1,2.4,0.1c0.8,0,1.5,0.1,2.4,0.1c0.3,0,0.6,0,0.9,0c0.3,0,0.6,0,0.9,0.1c1.5,0.2,2.8,0,4.1-0.4c0.4,0,0.7-0.1,1-0.2
		c0.3,0,0.6-0.1,1-0.1c0.5,0,0.9,0.2,1.3,0.5c0.4,0.4,0.6,0.7,0.6,1.1c-0.1,1.5-0.1,2.9,0.2,4.3c0.2,1.4,0.5,2.8,1,4.2
		c0.1,0.2,0.1,0.3,0.1,0.5c0,0.2,0,0.3,0,0.5c-0.1,0.4-0.3,0.6-0.6,0.6c-0.9,0-1.7,0.1-2.5,0.2c-0.8,0.1-1.6,0.1-2.4,0
		c-0.7-0.1-1.4-0.1-2-0.1c-0.6,0-1.3,0-2,0c-1.1,0-2.2,0-3.3,0c-1.1,0-2.2-0.1-3.3-0.2c-0.4,0-0.7-0.1-1-0.1c-0.3,0-0.6,0-0.8,0
		c-1.5,0.2-2.9,0.2-4.2,0.2c-0.8,0-1.6,0-2.4,0c-0.8,0-1.6,0.1-2.3,0.3c-0.5,0.1-1-0.1-1.4-0.5c-0.1-0.1-0.2-0.2-0.3-0.3
		c-0.1-0.1-0.1-0.2-0.1-0.3c0.2-0.9,0.2-1.7,0.1-2.5c-0.1-0.8-0.1-1.6,0-2.4c0.1-0.8,0.1-1.6,0-2.4c0-0.8,0-1.6,0-2.4
		C386.5,466.9,386.5,465.2,386.5,463.4z M392.4,451.5c0-0.2-0.1-0.3-0.2-0.4c-0.2,0-0.3,0.1-0.4,0.2c-0.1,0.2-0.1,0.3,0.2,0.4
		C392.2,451.8,392.4,451.7,392.4,451.5z M397.8,477.1L397.8,477.1l-0.2-0.1L397.8,477.1z M406.3,476.9l-0.1,0.2
		c0.1,0,0.1,0.1,0.1,0.2l0.1-0.2C406.4,477,406.3,477,406.3,476.9z"/>
	<path class="st0" d="M454.6,449.5c-0.1,0.3-0.1,0.7-0.2,1.1c-0.2,1.5-0.5,2.9-0.8,4.3c-0.3,1.4-0.5,2.8-0.7,4.3
		c-0.1,0.3-0.1,0.5-0.1,0.8c0,0.3,0,0.6,0,0.9c-0.1,0.3-0.1,0.5-0.1,0.8s-0.1,0.5-0.2,0.8c-0.3,1.3-0.5,2.5-0.7,3.7
		c-0.2,1.2-0.4,2.5-0.6,3.7c-0.3,1.4-0.6,2.8-0.8,4.1c-0.2,1.4-0.5,2.8-0.7,4.1c-0.1,0.6-0.4,1-0.9,1.3c-0.6,0.2-1.1,0.3-1.7,0.5
		c-0.6,0.2-1.2,0.2-1.9,0.1c-0.7,0.1-1.4,0.1-2.1,0.1c-0.7-0.1-1.4,0-2.2,0.2c-0.3,0.1-0.6,0-0.9-0.2c-0.2-0.2-0.4-0.4-0.5-0.7
		c-0.2-0.3-0.2-0.6-0.2-0.9c-0.1-0.5-0.1-1-0.2-1.6c-0.1-0.5-0.2-1.1-0.3-1.6c-0.1-0.5-0.2-0.9-0.2-1.4c0-0.5-0.1-0.9-0.2-1.3
		c-0.3-1.6-0.5-3.1-0.8-4.7c-0.3-1.5-0.5-3.1-0.8-4.5c-0.1-0.4-0.2-0.8-0.2-1.1c0-0.3,0-0.7,0-1c-0.3-1.3-0.5-2.7-0.6-4.1
		c-0.2-1.4-0.4-2.8-0.6-4.1c-0.1-0.5-0.2-0.9-0.2-1.4c-0.1-0.5-0.1-1-0.2-1.4c-0.1-0.8-0.2-1.4-0.4-1.9c-0.2-0.5-0.4-1.1-0.8-1.9
		c-0.1,0.1-0.2,0.2-0.2,0.2s-0.1,0.1-0.1,0.2c-0.1,0.6-0.2,1.1-0.3,1.7c-0.1,0.6-0.1,1.2,0,1.7c0.1,1.2,0.1,2.3,0,3.5
		c-0.2,1.8-0.2,3.6-0.2,5.4c0,1.8,0,3.7-0.1,5.6v11.7c0,0.9-0.3,1.5-0.9,2c-0.2,0.1-0.4,0.2-0.5,0.3c-0.1,0.1-0.3,0.1-0.6,0.1
		c-1.2,0-2.3,0.1-3.5,0.2c-1.2,0.1-2.4,0.3-3.5,0.5c-1,0.2-1.6-0.3-1.9-1.4c-0.1-0.2-0.1-0.3-0.1-0.4c0-0.1,0-0.3,0-0.5
		c0-0.6,0-1.2,0-1.8c0-0.6,0-1.2-0.1-1.8v-7.1v-0.7c0-1,0.1-2,0.2-3c0.1-1,0.1-2,0.2-3c0.1-0.9,0.1-1.7,0.1-2.5
		c0-0.8,0.1-1.6,0.1-2.4c-0.9-0.8-1.7-1.5-2.7-2c-0.4-0.2-0.8-0.3-1.2-0.5c-0.4-0.2-0.7-0.5-1-0.8c-0.1-0.1-0.2-0.3-0.2-0.5
		c-0.1-0.2,0-0.4,0.1-0.5c0.2-0.4,0.4-0.7,0.5-0.8c1-1.2,1.9-2.4,2.7-3.6c0.1-0.1,0.1-0.2,0.2-0.3c0.1-0.1,0.2-0.2,0.2-0.3
		c0.3-0.5,0.6-0.9,0.9-1.4c0.3-0.5,0.6-0.9,0.8-1.4c0.2-0.4,0.3-0.8,0.3-1.2c0-0.5,0-0.9,0.1-1.3c0-1.8,0.1-3.6,0.2-5.2
		c0-0.6,0-1.1,0-1.6c-0.3-1.4-0.3-2.8-0.3-4.2c0.1-1.4,0.2-2.8,0.3-4.2c0.1-0.7,0.2-1.4,0.2-2.2c0.1-0.8,0.1-1.5,0.2-2.4
		c0.1-0.1,0.1-0.2,0.1-0.3c0-0.1,0.1-0.2,0.1-0.3c0.2-0.6,0.5-1,1.1-1.1c1.6-0.2,3.2-0.3,4.8-0.5c1.6-0.2,3.2-0.2,4.8-0.1
		c0.4,0,0.8,0,1.1,0c0.4-0.1,0.7-0.1,1.1-0.2c0.2,0,0.4,0.1,0.6,0.2c0.2,0.1,0.3,0.3,0.4,0.5c0.1,0.4,0.2,0.8,0.3,1.1
		c0.1,0.3,0.2,0.7,0.3,1.1c0.3,1.6,0.6,3.2,1,4.8c0.4,1.6,0.7,3.2,1.1,4.8c0.3,1.2,0.5,2.3,0.7,3.5c0.2,1.1,0.5,2.3,0.7,3.5
		c0.1,0.4,0.2,0.7,0.3,0.9c0.1,0.3,0.1,0.6,0.2,0.9c0.1,0.3,0.2,0.6,0.2,1c0.1,1,0.3,1.9,0.5,2.7c0.2,0.8,0.4,1.7,0.6,2.7
		c0,0.3,0.1,0.5,0.2,0.8c0.1,0.3,0.1,0.5,0.2,0.8c0.1,0.4,0.1,0.7,0.3,1c0.1,0.3,0.3,0.5,0.4,0.8c0.3,0.1,0.5-0.1,0.6-0.5
		c0.3-0.7,0.5-1.4,0.6-2.1c0.1-0.7,0.3-1.5,0.5-2.2c0.2-1,0.4-2,0.6-3c0.2-1,0.4-2.1,0.5-3.1c0.2-0.8,0.3-1.5,0.5-2.4
		c0.2-0.8,0.3-1.6,0.4-2.4c0.2-1.2,0.4-2.3,0.7-3.5c0.3-1.1,0.5-2.3,0.8-3.5c0.3-0.9,0.5-1.7,0.6-2.6c0.2-0.9,0.4-1.7,0.6-2.6
		c0.2-0.7,0.3-1.4,0.5-2.2c0.1-0.3,0.2-0.5,0.3-0.7c0.2-0.2,0.4-0.3,0.6-0.3c0.6-0.1,1.2-0.2,1.7-0.2s1.1,0,1.6-0.2h0.5
		c1.3,0.1,2.5,0.1,3.7,0c1.2-0.1,2.4-0.3,3.7-0.4c0.7-0.2,1.4-0.1,2.1,0.1c0.5,0.2,0.8,0.6,0.8,1.1c0,0.8,0,1.5,0,2.3
		c0,0.8-0.1,1.5-0.2,2.3c-0.1,1-0.2,2-0.3,3c-0.1,1-0.1,2,0,3c0,0.4,0.1,0.7,0,1.1c0,0.4,0,0.8,0,1.2c-0.1,1.5-0.1,3.1-0.1,4.6
		c0,1.6,0,3.1,0,4.7c0,0.1,0,0.2,0,0.3c0,0.1,0,0.2,0,0.3c-0.1,0.7,0,1.2,0.3,1.7c0.2,0.5,0.5,0.9,1,1.4c0.6,0.6,1.1,1.1,1.6,1.7
		c0.5,0.6,1,1.2,1.6,1.8c0.2,0.2,0.3,0.5,0.2,0.9c-0.1,0.1-0.2,0.2-0.3,0.4c-0.2,0.3-0.4,0.6-0.5,0.9c-0.1,0.3-0.2,0.6-0.1,0.9
		c0,0.3-0.1,0.4-0.2,0.6c-0.2,0.1-0.3,0.2-0.5,0.3c-0.4,0.1-0.7,0.2-0.8,0.2c-0.3,0.1-0.5,0.2-0.7,0.3c-0.6,0.5-1,1-1.3,1.5
		c-0.3,0.5-0.5,1.2-0.5,1.9c0.1,0.3,0.1,0.5,0.1,0.7c0,0.2,0,0.4,0,0.6c0.2,1.1,0.2,2.1,0,3c-0.3,1.6-0.3,3-0.2,4.3
		c0.1,0.7,0.1,1.4,0,1.9c0,0.6-0.1,1.2-0.1,1.9c-0.1,1-0.1,1.9-0.1,2.8c0,0.9,0,1.8-0.2,2.8c-0.2,1.1-0.1,2.1,0.1,3
		c0,0.3,0.1,0.5,0.1,0.6s0,0.3,0,0.5c0,0.5-0.1,0.9-0.5,1.3c-0.4,0.4-0.8,0.6-1.3,0.6c-0.1,0-0.2,0-0.2,0c-0.1,0-0.1,0-0.2,0
		c-1.3-0.2-2.5-0.2-3.7-0.2c-1.2,0-2.4,0-3.7,0.1c-0.9,0-1.4-0.4-1.5-1.1c-0.1-0.4-0.1-0.7-0.2-1c-0.1-0.3-0.1-0.7,0-1.1
		c0-1.3,0.1-2.5,0.1-3.7s0-2.5,0-3.8c0-2,0.1-4,0.1-6s0.1-4,0.3-6c0.1-1.2,0.2-2.4,0.2-3.6c0-1.2,0-2.5,0-3.7c0-0.2,0-0.3,0-0.5
		c0-0.2-0.1-0.3-0.3-0.4C454.7,448.8,454.6,449.2,454.6,449.5z M425.8,440.1c0,0,0-0.1-0.1-0.2c-0.1-0.1-0.2-0.1-0.3,0
		c-0.1,0.1-0.2,0.2-0.2,0.4c0,0.1,0,0.2,0.1,0.2c0.1,0.1,0.1,0.1,0.1,0.2c0.1,0.1,0.2,0.2,0.2,0.2c0.2-0.2,0.2-0.2,0.2-0.2
		c0.1-0.1,0.1-0.3,0.1-0.5C425.8,440.2,425.8,440.2,425.8,440.1z M427.5,476.2c-0.1,0-0.2,0.1-0.2,0.1c0,0-0.1,0.1-0.2,0.2
		c-0.1,0.1-0.1,0.1,0,0.2c0,0.1,0.1,0.1,0.2,0c0.1,0,0.2-0.1,0.4-0.2C427.6,476.3,427.5,476.2,427.5,476.2z M438.7,455L438.7,455
		l-0.1-0.2L438.7,455z M446.8,472.4c0.4-0.2,0.4-0.5,0.2-0.8c0-0.2-0.1-0.3-0.3-0.3c-0.2,0.1-0.3,0.1-0.4,0.2
		c-0.1,0.1-0.2,0.2-0.1,0.3c0,0.1,0,0.2,0.1,0.3c0.1,0.1,0.1,0.2,0.2,0.3C446.7,472.4,446.8,472.4,446.8,472.4z M459,477.1l0.2,0.1
		V477L459,477.1z"/>
	<path class="st0" d="M489.3,478.3c-0.1,0.1-0.2,0.2-0.3,0.3c-0.8,0.8-1.9,1.1-3.3,0.9c-0.4-0.1-0.8-0.2-1.1-0.2c-0.4,0-0.7,0-1.1,0
		h-3.8c-0.8-0.1-1.1-0.6-1.1-1.4v-1.2c0-0.6,0-1.1-0.1-1.7c-0.1-0.6-0.1-1.1,0-1.7c0.1-0.5,0.1-1,0.1-1.5c0-0.5,0-1,0-1.5
		c0-1.4,0-2.7,0-4c0-1.3,0-2.7,0.2-4c0-0.6,0-1.1,0.1-1.7c0-0.6,0.1-1.2,0.2-1.7c0-0.4,0-0.7,0-1c0-0.3,0.1-0.7,0.2-1
		c0.1-1.1-0.4-2.1-1.3-2.8c-1.4-1-2.6-2.1-3.7-3.4c-0.4-0.4-0.4-0.7-0.1-1.1c0.2-0.3,0.4-0.6,0.6-0.8c0.2-0.2,0.3-0.4,0.5-0.5
		c0.2-0.2,0.4-0.3,0.6-0.5c0.6-0.6,1.1-1.1,1.6-1.7c0.5-0.6,1-1.1,1.5-1.7c0.3-0.3,0.4-0.5,0.5-0.8c0.1-0.3,0.2-0.6,0.2-1v-1.2
		c-0.1-1.3,0-2.6,0.3-3.7c0.2-0.6,0.2-1.3,0.1-2c-0.1-0.4-0.2-0.8-0.2-1.1c0-0.4,0-0.7,0.1-1.1c0.1-0.8,0.1-1.5,0.1-2.4
		c0-0.8,0.1-1.6,0.1-2.4c0-0.6,0.1-1.1,0.1-1.6c0-0.5,0-1,0-1.6c0.1-1,0.2-2,0.4-2.9c0.2-0.9,0.3-1.9,0.4-2.9c0-0.7,0.4-1,1.1-1
		c0.1,0,0.2,0,0.4,0c0.2,0,0.4,0,0.6,0.1c1.7,0.2,3.5,0.2,5.5,0.1c0.3,0,0.5,0,0.8,0c0.3,0,0.5,0.1,0.8,0.1c0.6,0,0.9,0.3,1,1v0.5
		c-0.1,0.4-0.1,0.8-0.2,1.2c-0.1,0.4-0.1,0.8-0.1,1.3c0,0.4,0,0.8,0.1,1.2c0.1,0.4,0.1,0.8,0.2,1.2v1.5c-0.2,1.8-0.3,3.6-0.3,5.4
		c-0.1,1.8-0.3,3.6-0.6,5.4c-0.2,1.5-0.1,3,0.3,4.5c0,0.4,0.3,0.7,0.8,0.8c1.2,0.3,2.3,0.4,3.5,0.5c1.2,0.1,2.3,0.1,3.5,0.2
		c0.1,0,0.2,0,0.4,0c0.2,0,0.4-0.1,0.6-0.2c0.2,0,0.4-0.2,0.5-0.5c0-0.1,0.1-0.2,0.1-0.4c0-0.2,0-0.3,0-0.5c0-0.3,0-0.6,0-0.9
		c0-0.3,0-0.6,0-0.8c0.3-0.7,0.4-1.4,0.4-2.2c0-0.8,0-1.5,0.1-2.3c0.1-1.2,0.2-2.3,0.3-3.5c0.1-1.2,0.2-2.4,0.3-3.5
		c0.2-1.2,0.2-2.4,0.2-3.6c0-1.2,0-2.4,0-3.6c0-0.3,0-0.5-0.1-0.8c-0.1-0.3-0.1-0.5-0.2-0.8c-0.1-0.6,0.1-1,0.7-1.2
		c0.5-0.2,0.9-0.3,1.3-0.4c0.4-0.1,0.9-0.2,1.3-0.2c0.7,0,1.4,0.1,2.1,0.1c0.7,0,1.4,0.1,2.1,0.3c0.8,0.3,1.6,0.4,2.5,0.3
		c0.9-0.2,1.4-0.1,1.5,0.2c0.1,0.3,0.2,0.7,0.3,1.4c0.1,0.5,0.2,1,0.2,1.4c0,0.4,0,0.9-0.1,1.4c-0.1,1.4-0.2,2.7-0.3,4.1
		c-0.1,1.4-0.2,2.8-0.3,4.2c-0.1,0.7-0.2,1.4-0.2,2.1c-0.1,0.7-0.1,1.4-0.2,2.1c-0.2,1.3-0.2,2.6-0.2,3.9c0,1.3,0,2.6,0.2,3.9
		c0,0.3,0,0.5,0,0.6s0,0.4,0,0.6c0.7,1.5,1.7,2.8,3,4c0.2,0.2,0.3,0.4,0.4,0.6c0.1,0.2,0.2,0.4,0.3,0.7c0,0.2-0.1,0.5-0.2,0.8
		c-0.1,0.2-0.2,0.3-0.4,0.4c-0.2,0.1-0.3,0.3-0.5,0.4c-0.3,0.3-0.5,0.5-0.7,0.7c-0.2,0.2-0.5,0.5-0.7,0.7c-0.8,0.6-1.3,1.2-1.5,2
		c-0.3,0.8-0.3,1.6-0.2,2.5c0.1,0.3,0.2,0.5,0.2,0.8c0,0.3,0,0.6,0.1,0.9c0.1,0.7,0.1,1.4,0.1,2c0,0.6-0.1,1.3-0.2,2
		c-0.2,0.7-0.2,1.5-0.3,2.2c0,0.8,0,1.5,0.2,2.2c0.2,0.8,0.1,1.6-0.1,2.3c-0.2,0.6-0.2,1.1-0.2,1.6c0,0.5,0,1.1,0,1.6
		c-0.1,1.4,0,2.8,0.2,4.3c0,0.1,0,0.2,0,0.3c0,0.1,0,0.2,0,0.3c-0.1,0.5-0.3,0.9-0.8,1.1c-0.7,0.4-1.4,0.6-2.2,0.8
		c-0.8,0.2-1.6,0.2-2.4,0.1c-0.7-0.1-1.3-0.2-1.9-0.3c-0.6-0.1-1.3-0.2-2-0.3c-0.6,0-1-0.3-1.3-1c-0.2-0.5-0.3-1.1-0.2-1.7
		c0.2-1.6,0.2-3.2,0.3-4.8c0-1.6,0-3.2-0.1-4.8c-0.1-0.5-0.1-1,0-1.5c0-0.5,0.1-1,0.1-1.6c0.1-1.2,0.1-2.3,0.1-3.5
		c0-1.2-0.1-2.3-0.2-3.5c0-0.5-0.3-0.8-0.8-0.8h-1c-1.2,0.3-2.4,0.4-3.6,0.5c-1.2,0.1-2.4,0-3.6-0.1c-0.2,0-0.3-0.1-0.4,0
		c-0.1,0-0.2,0-0.3,0c-0.1,0-0.2,0.1-0.3,0.2c-0.1,0.1-0.2,0.2-0.2,0.3c-0.1,0.7-0.2,1.4-0.2,2.1c0,0.7-0.1,1.3-0.2,2
		c0,0.4,0,0.8,0,1.3c0,0.4-0.1,0.9-0.1,1.3c-0.1,0.5-0.2,0.9-0.2,1.4c0,0.5-0.1,0.9-0.1,1.4c0,0.3,0,0.5,0,0.8
		c0,0.3-0.1,0.5-0.2,0.8c-0.1,0.3-0.1,0.5-0.1,0.8c0,0.3,0,0.6,0,0.9c0.1,0.3,0.2,0.6,0.2,1c0,0.4,0,0.7-0.1,1
		c-0.3,1.1-0.3,2.1-0.2,3.2c0.1,1,0.2,2.1,0.4,3.3C489.5,478.2,489.4,478.2,489.3,478.3z M494.9,446L494.9,446l0.1-0.2h-0.2
		C494.9,445.9,494.9,445.9,494.9,446z M504.4,461.6v0.5l0.2,0.2c0.1-0.3,0.2-0.5,0.2-0.7c-0.1,0-0.1-0.1-0.2-0.1
		C504.4,461.4,504.4,461.5,504.4,461.6z"/>
	<path class="st0" d="M552,436.8c0,0.4,0,0.8,0,1.3c0,0.5,0,0.9,0,1.4c0.1,0.8,0.1,1.4,0.1,1.9c0,0.4,0.1,0.8,0.2,1.1
		c0.1,0.3,0.3,0.6,0.6,0.9c0.3,0.3,0.7,0.7,1.2,1.3c0.4,0.4,0.7,0.7,1,1c0.3,0.3,0.6,0.6,1,0.9c0.1,0.1,0.2,0.2,0.3,0.3
		c0.1,0.1,0.2,0.2,0.3,0.3c0,0.2,0,0.4-0.1,0.7c-0.2,0.3-0.4,0.6-0.6,0.8c-0.6,0.5-1.1,1-1.6,1.5s-1,1.1-1.4,1.7
		c-0.5,0.5-0.7,1-0.8,1.7c-0.2,0.8-0.3,1.5-0.3,2.3c-0.1,0.8-0.1,1.6-0.1,2.4c0,0.4,0,0.9,0,1.3c0,0.5,0,0.9,0,1.4
		c0,0.6-0.1,1.1-0.2,1.6c-0.1,0.5-0.2,1.1-0.4,1.6c-0.3,1-0.4,2-0.5,3.2c-0.1,1.2-0.3,2.3-0.6,3.4c-0.4,1-0.9,2.1-1.4,3.1
		c-0.1,0.3-0.2,0.5-0.4,0.8c-0.2,0.3-0.4,0.5-0.6,0.7c-0.4,0.4-0.7,0.7-1,1.1c-0.3,0.4-0.6,0.8-1,1.2c-0.1,0.1-0.2,0.2-0.4,0.3
		c-0.2,0.1-0.3,0.2-0.4,0.3c-2,0.8-3.9,1.2-5.9,1.3c-0.3,0-0.5,0-0.8-0.1c-0.3,0-0.5-0.1-0.8-0.2c-0.4,0-0.8-0.1-1.3-0.2
		c-0.5,0-0.9-0.1-1.4-0.2c-0.6,0-1.2-0.2-1.8-0.3c-0.6-0.2-1.1-0.4-1.6-0.8c-0.5-0.5-1.1-0.9-1.8-1.3c-0.9-0.5-1.7-1-2.3-1.7
		c-0.6-0.7-1.2-1.5-1.7-2.3c-0.2-0.3-0.3-0.5-0.4-0.8c-0.1-0.3-0.2-0.5-0.3-0.8c-0.2-0.4-0.3-0.7-0.4-1.1s-0.2-0.7-0.2-1.1
		c0-0.3,0-0.5-0.1-0.7c-0.3-1-0.4-2-0.4-3c0-1-0.1-2-0.2-3c-0.1-0.7-0.2-1.3-0.2-2c0-0.7-0.1-1.4-0.1-2.1c0-0.7,0-1.4,0-2.2
		c0-0.8,0.1-1.5,0.2-2.3c0.2-0.8-0.1-1.4-0.8-1.8c-0.5-0.4-1-0.8-1.5-1.1c-0.6-0.3-1.1-0.5-1.7-0.6c-0.4-0.1-0.6-0.3-0.6-0.6
		c0-0.3,0-0.5,0.2-0.8c0.2-0.3,0.3-0.5,0.4-0.8c0.1-0.3,0.3-0.5,0.5-0.6c1.4-1.3,2.7-2.7,3.8-4.2c0.4-0.4,0.5-0.9,0.5-1.5
		c0-1.5-0.1-2.9-0.1-4.3c0-1.4,0-2.9,0.2-4.3c0.1-1.1,0.3-2.2,0.5-3.3c0.2-1.1,0.5-2.2,0.8-3.3c0.2-0.3,0.3-0.5,0.3-0.8
		c0.1-0.3,0.2-0.5,0.3-0.8c0.3-0.7,0.6-1.2,0.9-1.7c0.4-0.5,0.9-1,1.4-1.4c0.2-0.2,0.4-0.3,0.6-0.4c0.2-0.1,0.4-0.3,0.6-0.4
		c0.3-0.3,0.6-0.5,1-0.6s0.7-0.3,1.1-0.5c0.8-0.3,1.6-0.5,2.4-0.8c0.8-0.3,1.6-0.5,2.4-0.6c0.4-0.1,0.8-0.1,1.3-0.1
		c0.5,0,0.9,0.1,1.4,0.2c0.8,0.2,1.7,0.2,2.7,0.2c0.9,0.1,1.8,0.3,2.7,0.5c1.4,0.3,2.6,0.9,3.5,1.7c0.9,0.8,1.7,1.8,2.4,3
		c0.1,0.1,0.2,0.2,0.2,0.4c0,0.2,0.1,0.3,0.1,0.4c0.3,1,0.5,2,0.6,2.9c0.2,0.9,0.3,1.9,0.4,2.9c0,0.7,0,1.4,0.1,2.1
		c0.1,0.7,0.1,1.4,0.1,2.1c0,0.4,0.1,0.8,0,1.2C551.9,436,551.9,436.4,552,436.8L552,436.8z M532.9,475.2c0,0.1,0.1,0.1,0.2,0.1
		c0.2,0,0.3-0.1,0.2-0.4c-0.1,0-0.3-0.1-0.5-0.1c-0.1,0-0.1,0-0.1,0.1v0.2C532.8,475.1,532.8,475.2,532.9,475.2z M533,456.1
		c0.1,1.8,0.3,3.6,0.5,5.4c0,0.3,0.1,0.5,0.2,0.6c0.1,0.2,0.1,0.4,0.1,0.6c0.1,0.5,0.3,1,0.5,1.3c0.2,0.4,0.5,0.8,0.8,1.2
		c0.5,0.5,0.9,0.8,1.4,1c0.5,0.2,1.1,0.2,1.7,0c0,0,0.1-0.1,0.2-0.1c0.7-0.1,1.3-0.4,1.7-1.1c0.5-0.9,0.8-2,0.9-3.1
		c0.2-1,0.3-2,0.4-3c0.1-1,0.2-2,0.2-3c0-0.3,0-0.6,0-1c0-0.3,0.1-0.6,0.1-1c0-0.7,0.1-1.3,0.2-1.9c0-0.6,0.1-1.2,0.2-1.8
		c0-0.7,0.1-1.4,0-2.1c0-0.7,0.1-1.4,0.3-2.1c0-0.2,0.1-0.4,0-0.6c0-0.2,0-0.5,0-0.7c0-1.7,0-3.4,0-5.2c0-1.7-0.1-3.4-0.3-5
		c-0.1-0.7-0.2-1.4-0.3-2.1c-0.1-0.7-0.3-1.4-0.4-2.1c-0.3-0.9-0.6-1.6-1.1-2.1c-0.9-0.8-1.9-0.9-2.9-0.5c-0.6,0.4-1,0.8-1.3,1.2
		c-0.2,0.3-0.3,0.6-0.5,0.9c-0.2,0.3-0.3,0.6-0.4,0.9c-0.3,0.9-0.5,1.7-0.7,2.6c-0.2,0.9-0.4,1.8-0.5,2.6c-0.1,1.1-0.2,2.2-0.4,3.3
		c-0.2,1.1-0.2,2.3-0.2,3.4c0,0.3,0,0.5-0.1,0.7c-0.2,0.8-0.3,1.6-0.3,2.4c0,0.8,0,1.6,0,2.3v2.6C532.8,452.4,532.9,454.3,533,456.1
		z M541.5,466.9c-0.1,0-0.2,0-0.2,0.1c0,0.1,0,0.1,0.2,0.2c0,0.1,0,0.1,0.1,0.1s0.1,0,0.1-0.1c0-0.1,0.1-0.1,0-0.1c0,0,0-0.1,0-0.1
		H541.5z M543,428.9c0,0,0.1,0,0.2,0l0.2-0.1c0-0.1-0.1-0.2-0.2-0.4c0,0.1-0.1,0.1-0.2,0.2C542.9,428.8,543,428.9,543,428.9z
		 M543.5,474.1V474c0,0-0.1-0.1-0.2-0.1C543.4,474,543.4,474.1,543.5,474.1z"/>
	<path class="st0" d="M596.8,444.4c0.4,0.6,0.8,1.2,1.3,1.8c0.2,0.2,0.3,0.4,0.5,0.7c0.6,0.8,0.4,1.5-0.5,2.4
		c-0.2,0.1-0.4,0.2-0.6,0.3c-0.2,0.1-0.4,0.3-0.6,0.4c-0.5,0.3-0.9,0.7-1.3,1.1c-0.4,0.4-0.7,0.8-1.1,1.3c-0.2,0.3-0.4,0.5-0.5,0.7
		c-0.1,0.2-0.2,0.5-0.2,0.8c-0.1,0.7-0.1,1.4-0.2,1.9c-0.1,0.6-0.1,1.2-0.1,1.9c0.1,1.2,0,2.4-0.2,3.6c-0.2,1.2-0.3,2.4-0.3,3.6
		c-0.1,0.2-0.1,0.4-0.2,0.6c-0.1,0.2-0.1,0.4-0.1,0.6c0.1,0.7,0.1,1.3,0,2c-0.1,0.7-0.2,1.3-0.2,2c-0.1,0.7-0.3,1.3-0.5,1.8
		c-0.2,0.5-0.4,1.1-0.7,1.6c-0.2,0.3-0.3,0.6-0.5,0.9c-0.2,0.3-0.3,0.6-0.5,0.9c-0.4,0.9-1,1.5-1.7,2c-0.7,0.5-1.5,0.9-2.4,1.1
		c-1,0.3-1.9,0.5-2.9,0.7s-2,0.3-3,0.3c-0.6,0-1.1,0-1.6,0c-0.5,0-1,0-1.5,0.2c-0.7,0-1.4,0-2.1,0c-0.5-0.1-1-0.2-1.6-0.3
		c-0.5-0.1-1-0.2-1.5-0.5c-0.3-0.2-0.6-0.3-0.9-0.4c-0.3-0.1-0.7-0.2-1-0.3c-0.9-0.3-1.7-0.7-2.3-1.3c-0.6-0.6-1.1-1.3-1.6-2.1
		c-0.4-0.6-0.7-1.2-1-1.8c-0.3-0.6-0.5-1.2-0.8-1.8c-0.4-0.8-0.5-1.5-0.3-2.1c0.1-0.7,0.1-1.4,0.1-2c0-0.6,0-1.3,0-2
		c-0.1-3.1-0.1-6.3,0-9.4c0-0.1,0-0.2,0-0.3c0-0.1,0-0.2,0-0.3c0-0.6-0.3-1-0.8-1.3c-0.4-0.3-0.8-0.5-1.2-0.7
		c-0.4-0.2-0.8-0.4-1.3-0.6c-0.5-0.3-0.9-0.5-1.2-0.9c-0.3-0.3-0.7-0.6-1-0.9c-0.1-0.1-0.2-0.2-0.2-0.4c0-0.2,0-0.3,0.1-0.4l0.2-0.5
		c0.6-0.7,1.1-1.3,1.7-2c0.6-0.7,1.2-1.3,1.7-2.1c0.1-0.1,0.2-0.2,0.3-0.4c0.1-0.2,0.2-0.3,0.3-0.5c0.5-0.5,0.9-1,1.1-1.6
		c0.2-0.6,0.3-1.2,0.3-1.8c-0.1-1.3,0-2.6,0.1-3.8c0.1-1.2,0.1-2.4,0-3.8c-0.1-1-0.1-1.9,0-2.9c0-0.9,0.1-1.9,0.2-2.8
		c0-0.6,0.1-1.1,0.1-1.6s0-1,0.1-1.6c0-0.7,0-1.3,0-1.9c0-0.6,0-1.3,0.1-2c0.1-1,0.6-1.5,1.4-1.6h0.8c1.9,0.1,3.8,0,5.7-0.2
		c0.9-0.2,1.8-0.1,2.7,0.2c0.6,0.2,0.8,0.6,0.7,1.1c-0.3,1-0.4,2-0.4,3c0,1-0.1,2-0.2,3c-0.1,1-0.2,2-0.2,2.9
		c-0.1,0.9-0.1,1.9-0.2,2.8v0.8c-0.3,1.9-0.4,3.8-0.5,5.7c-0.1,1.9-0.2,3.7-0.3,5.6c-0.1,0.9-0.2,1.8-0.2,2.8c0,0.9,0,1.9,0,2.8
		c0,1.5,0,3-0.1,4.5c-0.1,1.5-0.3,3-0.4,4.4c-0.2,2.3,0,4.8,0.6,7.4c0.4,1.4,1.1,2.5,2.1,3.3c0.4,0.4,0.9,0.6,1.4,0.8
		c0.7,0.2,1.4,0.2,2,0c0.6-0.2,1.2-0.6,1.8-1c0.5-0.5,0.7-0.9,0.8-1.4c0.3-1,0.5-2,0.7-3c0.2-1,0.3-2.1,0.4-3.1c0-0.7,0-1.4,0.1-2.1
		c0-0.7,0-1.3,0-2.1c0-1.1,0-2.1,0.2-3.2c0.1-1.1,0.2-2.2,0.2-3.2c0.1-1.6,0.2-3.1,0.3-4.7c0.1-1.6,0.1-3.1,0.1-4.6c0-1,0.1-2,0-2.9
		c0-0.9-0.1-1.9-0.1-2.8c-0.1-1.4-0.1-2.6,0.1-3.7c0.1-1.1,0.2-2.2,0.2-3.3c0-1.1,0-2.2,0-3.4v-5.3c0-0.6,0.3-0.9,0.8-1
		c0.4-0.1,0.8-0.2,1.4-0.3c0.6-0.1,1.2-0.1,1.9-0.1c0.6,0,1.3,0,1.9-0.2c0.5,0,0.9,0,1.4,0c0.4,0.1,0.8,0.1,1.1,0
		c0.3,0,0.6-0.1,1-0.1c0.8-0.2,1.1,0.1,1.1,0.8c0,0.1,0,0.2,0,0.3c0,0.1,0,0.2,0,0.3c-0.2,0.9-0.2,1.7-0.3,2.6c0,0.9,0,1.7,0,2.7
		c0,0.8,0,1.8-0.2,2.9c-0.1,0.6-0.1,1.1-0.1,1.6c0,0.5,0,1.1,0.1,1.6c0.2,1,0.2,2.2,0.1,3.4c-0.2,0.9-0.2,1.7-0.2,2.6
		c0,0.9,0.1,1.7,0.2,2.7c0.1,0.6,0.2,1.1,0.2,1.6c0.1,0.5,0.1,1,0.2,1.6C596,443.2,596.4,443.8,596.8,444.4z M569.9,475.2l-0.2,0.2
		L569.9,475.2l-0.1,0.2L569.9,475.2z M589.8,423.4v0.2c0,0.1,0.1,0.2,0.2,0.3l0.2-0.2v-0.3c0-0.1,0-0.2,0-0.3
		c-0.1-0.1-0.1-0.2-0.2-0.1c-0.1,0.1-0.1,0.2-0.1,0.2C589.9,423.1,589.8,423.2,589.8,423.4L589.8,423.4z"/>
	<path class="st0" d="M617.7,448.8c0,0.3,0,0.6-0.2,0.8v1.3c0.4,2.3,0.6,4.6,0.5,6.8c-0.1,2.3-0.1,4.6-0.2,7c0,1.7-0.1,3.4-0.2,5.1
		c-0.1,1.7-0.1,3.4-0.2,5.1c0,0.4,0,0.8,0,1.3c0,0.4,0,0.8,0,1.3c-0.1,0.3-0.1,0.5-0.1,0.7c0,0.2-0.1,0.5-0.2,0.7
		c0,0.2-0.2,0.4-0.5,0.5c-0.2,0.2-0.3,0.2-0.5,0.1c-1.3-0.1-2.5-0.1-3.8-0.1c-1.2,0-2.5,0-3.8,0c-0.7,0-1.2-0.2-1.7-0.5
		c-0.7-0.5-1-1.2-1-2.2c0.1-1.2,0.2-2.4,0.2-3.6c0-1.2,0-2.4,0-3.7c-0.1-1.4-0.1-2.7,0-4.1c0.1-1.4,0.2-2.8,0.4-4.1
		c0.2-1.6,0.2-3.3,0-5.1c0-0.7-0.2-1.2-0.5-1.7c-0.4-0.5-0.8-0.9-1.1-1.3c-0.3-0.4-0.6-0.8-1-1.2c-0.3-0.3-0.5-0.6-0.8-0.9
		c-0.3-0.3-0.5-0.6-0.8-0.9c-0.4-0.6-0.4-1.2,0-1.9c0.3-0.4,0.5-0.7,0.8-1.1c0.3-0.4,0.6-0.8,1-1.1c0.6-0.7,1.1-1.4,1.7-2.4
		c0.1-0.3,0.2-0.5,0.3-0.6c0.1-0.2,0.2-0.3,0.3-0.5c0.2-0.2,0.4-0.5,0.5-0.9c0.1-0.6,0.2-1.1,0.2-1.7c0-0.6,0.1-1.2,0.1-1.7
		c0.1-1.4,0.2-2.9,0.3-4.3c0.1-1.4,0.1-2.9,0-4.4v-1.1c0.1-1.2,0.2-2.3,0.2-3.4c0-1.1,0.1-2.3,0.2-3.4c0-0.9,0.1-1.5,0.2-2
		c0-0.5,0.2-0.8,0.4-1c0.2-0.2,0.6-0.3,1.1-0.3c0.5,0,1.2,0,2.1,0c0.4,0,0.8,0,1.3,0c0.5,0,0.9,0,1.4,0c0.2,0,0.4,0,0.6,0
		c0.2,0,0.4,0,0.5,0.1c0.7,0.2,1.4,0.3,2.1,0.3c0.7,0.1,1.3,0.1,2,0.1c0.3,0,0.6,0.1,0.8,0.2c0.3,0.2,0.4,0.4,0.5,0.8
		c0.3,1.6,0.7,3.2,1.3,4.6c0.5,1.5,1,3,1.4,4.6c0.4,1.7,0.8,3.3,1.3,5c0.4,1.7,0.8,3.3,1.3,5c0.2,1,0.5,1.9,0.8,2.9
		c0.3,0.9,0.6,1.9,0.9,2.9c0.2,0.2,0.3,0.3,0.5,0.2c0.2-0.2,0.2-0.3,0.2-0.4c0-0.2,0.1-0.5,0.1-1c0-1.2,0.1-2.4,0.1-3.6
		c0-1.2,0.1-2.4,0.3-3.6c0-0.1,0-0.2,0-0.2c0,0,0,0,0-0.1c-0.1-2,0-4,0.2-6c0.2-2,0.3-4,0.3-6.1v-3c0-0.4,0-0.8,0-1.1
		c0-0.4,0.1-0.7,0.1-1.1c0.1-0.4,0.3-0.6,0.7-0.8c0.6-0.3,1.2-0.4,1.8-0.5c0.6,0,1.2-0.1,1.8-0.2c0.8,0,1.5,0,2.2,0
		c0.7,0.1,1.4,0.1,2.1,0c0.3,0,0.5,0,0.7,0.1c0.2,0.1,0.4,0.2,0.6,0.2c0.1,0.2,0.2,0.3,0.2,0.5c0.1,1,0.1,2,0.1,2.9
		c0,0.9,0,1.9,0,2.9c0,0.4,0,0.7-0.1,0.8c-0.2,0.7-0.2,1.4-0.2,2.1c0,0.7,0,1.4,0.2,2.1c0,0.5,0.1,1,0.1,1.4c0,0.5,0,0.9,0,1.3
		c-0.1,1.2-0.1,2.3-0.1,3.4c0,1.1,0.1,2.2,0.1,3.4c0,0.7,0,1.3,0.1,1.9c0,0.6,0.1,1.3,0.1,1.9c0,0.5,0.1,0.9,0.2,1.4
		c0.2,0.5,0.4,0.9,0.7,1.2c0.3,0.4,0.6,0.7,1,1.1c0.3,0.4,0.7,0.8,1,1.2c0.2,0.2,0.3,0.4,0.5,0.5c0.2,0.2,0.3,0.4,0.4,0.6
		c0.1,0.2,0.1,0.4,0.1,0.5s-0.1,0.3-0.2,0.5c-0.3,0.3-0.5,0.5-0.7,0.8c-0.2,0.3-0.5,0.6-0.9,0.8c-0.6,0.6-1.1,1.1-1.5,1.7
		c-0.5,0.6-0.9,1.3-1.4,2c-0.1,0.1-0.2,0.2-0.2,0.4c0,0.2-0.1,0.3-0.1,0.5c-0.2,0.2-0.2,0.5-0.2,1c-0.1,1.6-0.1,3.2-0.2,4.8
		c-0.1,1.5-0.1,3.1-0.1,4.8v4.3c0,1,0,2,0.1,2.9c0.1,0.9,0.2,1.9,0.3,2.9c0.1,0.4,0.1,0.7,0.1,1.1c-0.1,0.4-0.1,0.7-0.1,1.1
		c-0.1,0.4-0.2,0.7-0.5,1c-0.3,0.3-0.7,0.4-1.1,0.3l-0.9-0.2c-0.6-0.1-1.1-0.2-1.6-0.3c-0.5-0.1-1-0.1-1.5,0
		c-0.3,0.1-0.5,0.1-0.8,0.1c-0.3,0-0.5-0.1-0.8-0.2c-0.6,0-1.2,0-1.9,0.2c-0.9,0.3-1.6-0.1-2.1-1.2c-0.2-0.6-0.3-1.1-0.5-1.7
		c-0.2-0.6-0.4-1.2-0.5-1.8c-0.4-1.2-0.7-2.3-1.1-3.5c-0.4-1.2-0.7-2.3-1-3.5c-0.2-1-0.4-1.9-0.7-2.9c-0.3-1-0.6-1.9-0.9-2.8
		c-0.4-1.3-0.7-2.6-1-4c-0.3-0.9-0.5-1.8-0.8-2.7c-0.3-0.9-0.6-1.7-1-2.6c-0.3-0.7-0.5-1.4-0.7-2.1c-0.2-0.7-0.5-1.4-0.7-2.1
		c-0.2-0.2-0.3-0.3-0.4-0.5C617.8,448.2,617.6,448.5,617.7,448.8z M618.6,440.2C618.6,440.2,618.6,440.3,618.6,440.2
		c-0.1,0.1-0.2,0.1-0.2,0.2c-0.1,0.2,0,0.2,0.2,0.2c-0.1,0,0-0.1,0.2-0.2L618.6,440.2z"/>
	<path class="st0" d="M683.8,444.1c0.3,0.2,0.5,0.5,0.6,0.8c0.1,0.2,0.2,0.4,0.4,0.6c0.2,0.2,0.3,0.4,0.4,0.5
		c0.3,0.3,0.6,0.6,0.8,0.9c0.3,0.3,0.5,0.5,0.8,0.8c0.3,0.4,0.4,0.7,0.4,1c0,0.2-0.2,0.5-0.5,1c-0.4,0.4-0.8,0.8-1.1,1.3
		c-0.4,0.4-0.7,0.8-1.1,1.2c-1,1-1.5,2.2-1.7,3.6c0,1-0.1,1.9-0.2,2.9c-0.1,1-0.2,2-0.2,3c-0.1,1.6-0.3,3.1-0.6,4.6
		c-0.3,1.5-0.7,3-1.2,4.6c-0.2,0.6-0.4,1.1-0.6,1.6c-0.3,0.5-0.5,1-0.8,1.5c-0.2,0.3-0.3,0.5-0.5,0.7c-0.2,0.2-0.4,0.4-0.5,0.7
		c-0.2,0.2-0.5,0.4-0.8,0.7c-0.7,1.1-1.6,1.9-2.7,2.3c-1.1,0.4-2.2,0.7-3.3,0.9c-0.7,0.1-1.4,0.2-2.1,0.2c-0.7,0-1.3,0-2.1,0
		c-1.7,0-3.4-0.1-5.1-0.1c-1.7,0-3.4,0-5.1,0c-0.6,0.1-1.1,0.1-1.6,0.1s-1.1,0-1.6,0c-0.6,0-1-0.2-1.4-0.6c-0.1-0.2-0.2-0.3-0.3-0.4
		c-0.1-0.1-0.2-0.3-0.3-0.4c-0.4-0.4-0.6-0.9-0.6-1.6c0-0.3,0-0.6,0-0.9s0-0.6,0.1-0.9c0.3-2,0.4-4.1,0.5-6.1c0-2,0-4.1,0-6.2
		c0-0.6,0-1.2,0-1.8c0-0.6,0.1-1.2,0.3-1.7c0.1-0.4,0.1-0.7,0.1-1c0-0.3,0-0.7,0.1-1c0.1-0.8-0.2-1.4-0.8-1.7
		c-0.4-0.3-0.8-0.5-1.2-0.7c-0.4-0.2-0.7-0.5-1-1c-0.1-0.1-0.2-0.2-0.3-0.3c-0.2-0.1-0.3-0.2-0.4-0.3c-0.3-0.1-0.5-0.2-0.7-0.3
		c-0.2-0.1-0.5-0.2-0.7-0.3c-0.1-0.1-0.2-0.3-0.3-0.5c-0.1-0.2-0.1-0.4,0-0.5c0.2-0.3,0.3-0.5,0.4-0.6c0.1-0.2,0.3-0.4,0.4-0.6
		c0.5-0.6,0.9-1.1,1.4-1.6c0.5-0.5,0.9-1.1,1.3-1.7c0.6-0.8,1-1.6,1.3-2.4c0.1-0.1,0.2-0.4,0.2-0.8c0-1.4,0.1-2.9,0.2-4.3
		c0.2-1.4,0.3-2.9,0.4-4.3c0.1-0.5,0.2-0.9,0.2-1.3c0-0.4,0-0.8,0.1-1.3c0-0.6,0.1-1.1,0.1-1.7c0-0.6,0-1.2,0.1-1.8
		c0-0.6,0.1-1.2,0.1-1.9c0-0.6,0-1.3,0-1.9c0-0.9,0.1-1.8,0.1-2.8c0-0.9,0-1.9,0-2.8c0-0.3,0.1-0.5,0.3-0.7c0.2-0.2,0.4-0.3,0.6-0.3
		c1.8,0,3.6,0,5.4-0.1c1.9-0.1,3.7,0,5.5,0.3c0.5,0,0.9,0,1.4,0c0.5,0,0.9-0.1,1.4-0.1c0.4,0,0.8-0.1,1.1-0.1c0.3,0,0.6,0,1-0.1
		c1.1-0.1,2.2,0,3.2,0.2c1,0.2,2,0.6,3,1c0.6,0.4,1.2,0.7,1.7,1.1c0.5,0.4,1,0.8,1.5,1.3c1.2,1.3,2.1,2.7,2.7,4.2s1,3.2,1.1,5
		c0,0.9,0,1.7,0.1,2.5c0.1,0.8,0,1.7-0.2,2.5c0,0.2,0,0.3,0.1,0.5c0,0.2,0.1,0.3,0.1,0.5c0,0.7,0,1.4,0,2.2c0,0.7,0,1.5,0.1,2.2v1.8
		C683.3,443.6,683.5,443.9,683.8,444.1z M662.3,465.1c0,0.3,0,0.5,0,0.8c0,0.3,0,0.5,0.1,0.8c0.1,0.3,0.3,0.4,0.6,0.4h0.8
		c0.6-0.1,1.2-0.2,1.8-0.4c0.6-0.2,1.2-0.2,1.9-0.1c0.2,0.1,0.4,0,0.6,0c0.2-0.1,0.3-0.1,0.4-0.1c0.7-0.2,1.2-0.6,1.5-1.2
		c0.6-0.8,0.9-1.5,0.9-2.4c0.2-1,0.4-1.9,0.5-2.9c0.1-1,0.2-2,0.2-3c0-1,0-1.9,0-2.9s0-2,0.1-3c0-0.6,0-1.1,0-1.6s0-1,0.1-1.5
		c0.3-1.5,0.4-2.9,0.4-4.3c0-1.4,0.1-2.9,0.3-4.3c0-0.2,0.1-0.4,0-0.6c0-0.2,0-0.4,0-0.6c-0.2-0.9-0.3-1.7-0.5-2.6
		c-0.2-0.9-0.3-1.8-0.4-2.6c-0.1-0.4-0.1-0.7-0.2-1c-0.1-0.3-0.2-0.5-0.3-0.8c-0.4-1.1-1.2-1.8-2.4-2.1c-0.6-0.2-1.2-0.3-1.8-0.4
		c-0.6-0.1-1.3-0.2-2-0.2c-0.7,0-1,0.4-1.1,1.1c0,1.7-0.2,3.4-0.5,5.1c0,0.4-0.1,0.7-0.1,1c0,0.3,0,0.6,0,1
		c-0.1,0.9-0.1,1.9-0.1,2.8c0,1-0.1,1.9-0.2,2.8c-0.1,0.2-0.1,0.4-0.1,0.6c0,0.2,0.1,0.4,0.1,0.6v2.1c-0.1,1-0.2,1.9-0.2,2.7
		c0,0.9-0.1,1.7-0.2,2.7c-0.1,1.4-0.2,2.7-0.2,4c-0.1,1.3-0.1,2.4-0.1,3.2V465.1z M665.8,477.1c0.1,0,0.1,0,0.2-0.1
		c0-0.1,0.1-0.1,0.1-0.1c0,0,0.1,0,0.1-0.1c-0.2-0.1-0.3-0.2-0.4-0.2h-0.3c-0.1,0.1-0.1,0.1-0.2,0.1c-0.1,0-0.1,0.1-0.2,0.2
		c0.2,0.2,0.3,0.2,0.4,0.2H665.8z M678.5,437.2L678.5,437.2h-0.2c0,0.1,0,0.1,0.1,0.2L678.5,437.2z"/>
</g>
<path class="st0" d="M697.2,255.2c-7.9-3.5-17.5-12.2-32.3-7c0,0-34.4-5.2-44.9,3.5c-10.5,8.7-11.4,20.1,2.6,18.4
	c9.1-1.1,20.4-6,27.2-9.2c-12.7,13.9-28.9,33.9-51.4,34.5c-32.3,0.9-136.4-5.2-136.4-5.2s-24.5-0.9-71.7-5.2c-14-1.3-24.2,0-31.5,3
	c-0.1,0-0.3,0-0.4,0.1c-1.1,0.3-1.9,0.6-2.8,1c-0.9,0.4-1.7,0.8-2.5,1.2c-0.8,0.4-1.6,0.9-2.4,1.4l-2.3,1.5
	c-2.9,2.1-5.5,4.8-7.7,7.6c-4.6,5.7-7.3,12.5-8.7,19.4l-0.9,4.9l-0.4,2.2l-0.7,2.1l-0.3,1.1c-0.1,0.3-0.3,0.6-0.4,1
	c-0.3,0.6-0.6,1.3-0.9,1.9l-1.2,1.8c-0.4,0.6-0.9,1.1-1.4,1.6c-3.8,4.1-10.1,6.1-16.3,5.8l-0.1,0c-0.6,0-1.1,0.3-1.3,0.9
	c-0.2,0.7,0.2,1.4,0.9,1.6c3.5,1,7,1.1,10.6,0.5c3.6-0.6,7.1-2.2,10-4.7c0.7-0.6,1.5-1.2,2.1-2l1.8-2.2c0.5-0.8,1-1.6,1.4-2.4
	c0.2-0.4,0.5-0.8,0.7-1.2l0.5-1.3l1-2.6l0.7-2.6l0.6-2.5l0.5-2.3c0.5-2.1,1.2-4.1,2-6.1c0,2.4,0.1,4.7,0.3,6.9
	c1.7,16.6,21,74.3,21,74.3l15.4-0.5c1.8,0.2,2.8-3.8,1.5-5.1l-8.1-5.8l-3.5-17.5l9.6,20.1c0,0,7.8,2.1,16.1,0.6
	c2.8-0.5,3.3-4.3,0.7-5.5l-4.6-2.1c0,0-6.1-10.5-6.1-16.6c0-6.1,12.2-24.5,12.2-24.5s0,0,18.4,0s97,14,129.4,20.1
	c18.4,3.5,37,5.5,49.7,6.7l-4.6,24.8c0,0,3.5,0.6,8.2,1.7c4.7,1.2,9.9-0.6,9.9-0.6s2.3-5.2-2.9-5.2c-3.4,0,1.4-10.5,5.3-18.1
	c0,2.6,0.2,8,0.9,12.5c0.9,6.1,3.5,13.1,3.5,13.1h16.2c1.5,0,2.9-0.2,4.3-0.7c8-3.1-8.3-7.1-8.3-7.1c-2.6-3.5,2.6-21.9,2.6-21.9
	s24.5-12.2,30.6-24.5c6.1-12.2,25.3-50.7,30.6-56.8c5.2-6.1,10.5-1.7,19.2-3.5c8.7-1.7,17.5-18.4,17.5-18.4S705,258.7,697.2,255.2z"
	/>
</svg>
